<mxfile host="app.diagrams.net" agent="Mozilla/5.0 (Windows NT 10.0; Win64; x64) AppleWebKit/537.36 (KHTML, like Gecko) Chrome/139.0.0.0 Safari/537.36" version="28.2.0">
  <diagram id="prtHgNgQTEPvFCAcTncT" name="Page-1">
    <mxGraphModel dx="1025" dy="1594" grid="1" gridSize="10" guides="1" tooltips="1" connect="1" arrows="1" fold="1" page="1" pageScale="1" pageWidth="827" pageHeight="1169" math="0" shadow="0">
      <root>
        <mxCell id="0" />
        <mxCell id="1" parent="0" />
        <mxCell id="kDZRJCSb3KMc_5UIK3in-18" value="Pool" style="swimlane;html=1;childLayout=stackLayout;resizeParent=1;resizeParentMax=0;startSize=20;whiteSpace=wrap;" vertex="1" parent="1">
          <mxGeometry x="150" y="-450" width="560" height="860" as="geometry" />
        </mxCell>
        <mxCell id="kDZRJCSb3KMc_5UIK3in-19" value="1." style="swimlane;html=1;startSize=20;" vertex="1" parent="kDZRJCSb3KMc_5UIK3in-18">
          <mxGeometry y="20" width="120" height="840" as="geometry" />
        </mxCell>
        <mxCell id="kDZRJCSb3KMc_5UIK3in-24" value="1.god" style="whiteSpace=wrap;html=1;aspect=fixed;" vertex="1" parent="kDZRJCSb3KMc_5UIK3in-19">
          <mxGeometry x="20" y="60" width="80" height="80" as="geometry" />
        </mxCell>
        <mxCell id="kDZRJCSb3KMc_5UIK3in-27" value="2.god" style="whiteSpace=wrap;html=1;aspect=fixed;" vertex="1" parent="kDZRJCSb3KMc_5UIK3in-19">
          <mxGeometry x="20" y="210" width="80" height="80" as="geometry" />
        </mxCell>
        <mxCell id="kDZRJCSb3KMc_5UIK3in-29" value="3.god" style="whiteSpace=wrap;html=1;aspect=fixed;" vertex="1" parent="kDZRJCSb3KMc_5UIK3in-19">
          <mxGeometry x="20" y="350" width="80" height="80" as="geometry" />
        </mxCell>
        <mxCell id="kDZRJCSb3KMc_5UIK3in-31" value="1.god&lt;div&gt;diplomski&amp;nbsp;&lt;/div&gt;" style="whiteSpace=wrap;html=1;aspect=fixed;" vertex="1" parent="kDZRJCSb3KMc_5UIK3in-19">
          <mxGeometry x="20" y="510" width="80" height="80" as="geometry" />
        </mxCell>
        <mxCell id="kDZRJCSb3KMc_5UIK3in-35" value="hj&amp;nbsp;&lt;div&gt;drÅ¾avna matura&amp;nbsp;&lt;/div&gt;" style="rounded=0;whiteSpace=wrap;html=1;" vertex="1" parent="kDZRJCSb3KMc_5UIK3in-19">
          <mxGeometry x="15" y="600" width="90" height="30" as="geometry" />
        </mxCell>
        <mxCell id="kDZRJCSb3KMc_5UIK3in-20" value="Lane 2" style="swimlane;html=1;startSize=20;" vertex="1" parent="kDZRJCSb3KMc_5UIK3in-18">
          <mxGeometry x="120" y="20" width="120" height="840" as="geometry" />
        </mxCell>
        <mxCell id="kDZRJCSb3KMc_5UIK3in-21" value="Lane 3" style="swimlane;html=1;startSize=20;" vertex="1" parent="kDZRJCSb3KMc_5UIK3in-18">
          <mxGeometry x="240" y="20" width="160" height="840" as="geometry" />
        </mxCell>
        <mxCell id="kDZRJCSb3KMc_5UIK3in-23" value="Lane 3" style="swimlane;html=1;startSize=20;" vertex="1" parent="kDZRJCSb3KMc_5UIK3in-18">
          <mxGeometry x="400" y="20" width="160" height="840" as="geometry" />
        </mxCell>
        <mxCell id="kDZRJCSb3KMc_5UIK3in-25" value="2021" style="text;html=1;align=center;verticalAlign=middle;whiteSpace=wrap;rounded=0;" vertex="1" parent="1">
          <mxGeometry x="60" y="-400" width="60" height="30" as="geometry" />
        </mxCell>
        <mxCell id="kDZRJCSb3KMc_5UIK3in-26" value="2022" style="text;html=1;align=center;verticalAlign=middle;whiteSpace=wrap;rounded=0;" vertex="1" parent="1">
          <mxGeometry x="60" y="-270" width="60" height="30" as="geometry" />
        </mxCell>
        <mxCell id="kDZRJCSb3KMc_5UIK3in-28" value="2023" style="text;html=1;align=center;verticalAlign=middle;whiteSpace=wrap;rounded=0;" vertex="1" parent="1">
          <mxGeometry x="60" y="-130" width="60" height="30" as="geometry" />
        </mxCell>
        <mxCell id="kDZRJCSb3KMc_5UIK3in-30" value="2024" style="text;html=1;align=center;verticalAlign=middle;whiteSpace=wrap;rounded=0;" vertex="1" parent="1">
          <mxGeometry x="60" y="20" width="60" height="30" as="geometry" />
        </mxCell>
        <mxCell id="kDZRJCSb3KMc_5UIK3in-33" value="2025" style="text;html=1;align=center;verticalAlign=middle;whiteSpace=wrap;rounded=0;" vertex="1" parent="1">
          <mxGeometry x="60" y="220" width="60" height="30" as="geometry" />
        </mxCell>
      </root>
    </mxGraphModel>
  </diagram>
</mxfile>
